<?xml version="1.0" encoding="utf-8"?>
<!-- Generator: Adobe Illustrator 16.0.0, SVG Export Plug-In . SVG Version: 6.00 Build 0)  -->
<!DOCTYPE svg PUBLIC "-//W3C//DTD SVG 1.1//EN" "http://www.w3.org/Graphics/SVG/1.1/DTD/svg11.dtd">
<svg version="1.1" id="Layer_1" xmlns="http://www.w3.org/2000/svg" xmlns:xlink="http://www.w3.org/1999/xlink" x="0px" y="0px"
	 width="15px" height="20px" viewBox="0 0 15 20" enable-background="new 0 0 15 20" xml:space="preserve">
<g>
	<path fill-rule="evenodd" clip-rule="evenodd" fill="#1B85C2" d="M10,15.024c0,2.751-2.229,4.979-4.999,4.979V15L10,15.012
		C10.001,15.053,10,14.983,10,15.024z"/>
	<path fill-rule="evenodd" clip-rule="evenodd" fill="#15489E" d="M5.001,15l2.5,0.006L10,15.012c0.001,0.021,0.001,0.014,0,0.006
		c0-0.008,0-0.015,0,0.006c0,1.375-0.558,2.62-1.461,3.521L5.001,15z"/>
	<path fill-rule="evenodd" clip-rule="evenodd" fill="#107C96" d="M4.978,20C2.227,20,0,17.771,0,15.001h5.002L4.99,20
		C4.949,20.001,5.019,20,4.978,20z"/>
	<path fill-rule="evenodd" clip-rule="evenodd" fill="#0F3B5F" d="M5.001,15.001l-0.006,2.5L4.99,20
		c-0.021,0.001-0.014,0.001-0.006,0c0.008,0,0.015,0-0.006,0c-1.375,0-2.62-0.558-3.521-1.461L5.001,15.001z"/>
	<path fill-rule="evenodd" clip-rule="evenodd" fill="#2BB6AA" d="M0.001,14.977c0-2.751,2.229-4.979,4.999-4.979V15l-4.999-0.012
		C0,14.948,0.001,15.018,0.001,14.977z"/>
	<path fill-rule="evenodd" clip-rule="evenodd" fill="#17917F" d="M5,15l-2.5-0.006l-2.499-0.006C0,14.968,0,14.975,0.001,14.983
		c0,0.008,0,0.015,0-0.006c0-1.375,0.558-2.62,1.461-3.521L5,15z"/>
	<path fill-rule="evenodd" clip-rule="evenodd" fill="#E45E25" d="M15,0.022C15,2.773,12.771,5,10.001,5v-5.002L15,0.01
		C15.001,0.051,15-0.019,15,0.022z"/>
	<path fill-rule="evenodd" clip-rule="evenodd" fill="#F8B132" d="M10.001-0.001l2.5,0.006L15,0.01c0.001,0.021,0.001,0.014,0,0.006
		c0-0.008,0-0.015,0,0.006c0,1.375-0.558,2.62-1.461,3.521L10.001-0.001z"/>
	<rect x="5" y="-0.001" fill-rule="evenodd" clip-rule="evenodd" fill="#DF1F37" width="5" height="4.999"/>
	<path fill-rule="evenodd" clip-rule="evenodd" fill="#CF2027" d="M5-0.001h5.002L5,4.999V-0.001z"/>
	<rect x="5" y="10" fill-rule="evenodd" clip-rule="evenodd" fill="#25316B" width="5" height="4.999"/>
	<path fill-rule="evenodd" clip-rule="evenodd" fill="#1257A2" d="M5,10h5.002L5,15V10z"/>
	<rect x="5.002" y="4.999" fill-rule="evenodd" clip-rule="evenodd" fill="#952580" width="4.999" height="5"/>
	<path fill-rule="evenodd" clip-rule="evenodd" fill="#752162" d="M10.001,4.999V10l-5-5.002H10.001z"/>
</g>
</svg>
